<svg width="1231" height="269" viewBox="0 0 1231 269" fill="none" xmlns="http://www.w3.org/2000/svg">
<path id="Ellipse 21" d="M615.224 0.5C785.088 0.500011 938.856 15.5528 1050.15 39.8828C1105.79 52.0487 1150.79 66.5285 1181.87 82.5908C1197.41 90.6223 1209.44 99.037 1217.58 107.735C1225.72 116.431 1229.95 125.381 1229.95 134.5C1229.95 143.619 1225.72 152.569 1217.58 161.265C1209.44 169.963 1197.41 178.378 1181.87 186.409C1150.79 202.471 1105.79 216.951 1050.15 229.117C938.856 253.447 785.088 268.5 615.224 268.5C445.359 268.5 291.591 253.447 180.302 229.117C124.653 216.951 79.653 202.471 48.5771 186.409C33.0386 178.378 21.006 169.963 12.8643 161.265C4.72479 152.569 0.5 143.619 0.5 134.5C0.5 125.381 4.72479 116.431 12.8643 107.735C21.006 99.0369 33.0386 90.6223 48.5771 82.5908C79.653 66.5285 124.653 52.0487 180.302 39.8828C291.591 15.5528 445.359 0.5 615.224 0.5Z" stroke="url(#paint0_linear_1_276)"/>
<defs>
<linearGradient id="paint0_linear_1_276" x1="615.223" y1="0" x2="615.223" y2="269" gradientUnits="userSpaceOnUse">
<stop stop-opacity="0"/>
<stop offset="0.479167" stop-color="#763CAC"/>
</linearGradient>
</defs>
</svg>
