<svg width="971" height="269" viewBox="0 0 971 269" fill="none" xmlns="http://www.w3.org/2000/svg">
<path id="Ellipse 23" d="M485.335 0.5C619.325 0.5 740.612 15.5514 828.386 39.876C872.276 52.0391 907.758 66.5133 932.256 82.5645C956.775 98.6292 970.17 116.19 970.17 134.5C970.17 152.81 956.775 170.371 932.256 186.436C907.758 202.487 872.276 216.961 828.386 229.124C740.612 253.449 619.325 268.5 485.335 268.5C351.345 268.5 230.059 253.449 142.285 229.124C98.3948 216.961 62.9122 202.487 38.4141 186.436C13.8953 170.371 0.5 152.81 0.5 134.5C0.5 116.19 13.8953 98.6292 38.4141 82.5645C62.9122 66.5132 98.3948 52.0392 142.285 39.876C230.059 15.5515 351.345 0.500016 485.335 0.5Z" stroke="url(#paint0_linear_1_278)"/>
<defs>
<linearGradient id="paint0_linear_1_278" x1="485.335" y1="0" x2="485.335" y2="269" gradientUnits="userSpaceOnUse">
<stop stop-opacity="0"/>
<stop offset="0.479167" stop-color="#763CAC"/>
</linearGradient>
</defs>
</svg>
