<svg width="428" height="275" viewBox="0 0 428 275" fill="none" xmlns="http://www.w3.org/2000/svg">
<g id="Group 1907">
<path id="Ellipse 24" d="M213.688 0.5C272.614 0.500061 325.939 15.87 364.517 40.6934C403.099 65.5201 426.874 99.7581 426.874 137.5C426.874 175.242 403.099 209.48 364.517 234.307C325.939 259.13 272.614 274.5 213.688 274.5C154.761 274.5 101.436 259.13 62.8584 234.307C24.2754 209.48 0.5 175.242 0.5 137.5C0.5 99.758 24.2754 65.5201 62.8584 40.6934C101.436 15.8701 154.761 0.5 213.688 0.5Z" stroke="url(#paint0_linear_1_279)"/>
<path id="Ellipse 25" d="M212.989 91.5C269.828 91.5 321.264 100.671 358.471 115.481C377.077 122.887 392.1 131.694 402.463 141.446C412.825 151.198 418.494 161.861 418.494 173C418.494 184.139 412.825 194.802 402.463 204.554C392.1 214.306 377.077 223.113 358.471 230.519C321.264 245.329 269.828 254.5 212.989 254.5C156.149 254.5 104.713 245.329 67.5056 230.519C48.9005 223.113 33.8775 214.306 23.5144 204.554C13.1524 194.802 7.48315 184.139 7.48315 173C7.48315 161.861 13.1524 151.198 23.5144 141.446C33.8775 131.694 48.9005 122.887 67.5056 115.481C104.713 100.671 156.149 91.5 212.989 91.5Z" stroke="url(#paint1_linear_1_279)"/>
</g>
<defs>
<linearGradient id="paint0_linear_1_279" x1="213.687" y1="0" x2="213.687" y2="275" gradientUnits="userSpaceOnUse">
<stop offset="0.197917" stop-opacity="0"/>
<stop offset="1" stop-color="#763CAC"/>
</linearGradient>
<linearGradient id="paint1_linear_1_279" x1="212.989" y1="91" x2="212.989" y2="255" gradientUnits="userSpaceOnUse">
<stop offset="0.197917" stop-opacity="0"/>
<stop offset="1" stop-color="#763CAC"/>
</linearGradient>
</defs>
</svg>
