<svg width="1068" height="269" viewBox="0 0 1068 269" fill="none" xmlns="http://www.w3.org/2000/svg">
<path id="Ellipse 22" d="M533.52 0.5C680.818 0.5 814.155 15.5519 910.652 39.8789C958.905 52.0434 997.918 66.5203 1024.86 82.5762C1051.83 98.6513 1066.54 116.213 1066.54 134.5C1066.54 152.787 1051.83 170.349 1024.86 186.424C997.918 202.48 958.905 216.957 910.652 229.121C814.155 253.448 680.818 268.5 533.52 268.5C386.221 268.5 252.884 253.448 156.387 229.121C108.134 216.957 69.1206 202.48 42.1826 186.424C15.2123 170.349 0.5 152.787 0.5 134.5C0.5 116.213 15.2123 98.6513 42.1826 82.5762C69.1206 66.5203 108.134 52.0434 156.387 39.8789C252.884 15.5519 386.221 0.5 533.52 0.5Z" stroke="url(#paint0_linear_1_277)"/>
<defs>
<linearGradient id="paint0_linear_1_277" x1="533.52" y1="0" x2="533.52" y2="269" gradientUnits="userSpaceOnUse">
<stop stop-opacity="0"/>
<stop offset="0.479167" stop-color="#763CAC"/>
</linearGradient>
</defs>
</svg>
