<svg width="16" height="20" viewBox="0 0 16 20" fill="none" xmlns="http://www.w3.org/2000/svg">
<g id="Group">
<path id="Vector" fill-rule="evenodd" clip-rule="evenodd" d="M4.40636 0C1.96418 0 6.33795e-05 1.71084 6.33795e-05 3.80669C6.33795e-05 5.08087 0.726628 6.21254 1.84342 6.90338C1.26784 7.26345 0.80129 7.73112 0.481177 8.26888C0.161064 8.80664 -0.0037101 9.39955 6.33795e-05 10.0001C6.33795e-05 11.2751 0.726628 12.4059 1.84342 13.0968C1.26784 13.4568 0.80129 13.9245 0.481177 14.4623C0.161064 15 -0.0037101 15.5929 6.33795e-05 16.1934C6.33795e-05 18.2893 1.96418 20.0001 4.40636 20.0001C6.84753 20.0001 8.81265 18.2893 8.81265 16.1934V12.9751C9.58445 13.5124 10.5573 13.807 11.5622 13.8076C14.0044 13.8068 15.9685 12.0959 15.9685 10.0001C15.9725 9.39951 15.8078 8.80654 15.4877 8.26875C15.1676 7.73095 14.7009 7.26332 14.1251 6.90338C14.7007 6.54331 15.1673 6.07564 15.4874 5.53788C15.8075 5.00012 15.9723 4.40721 15.9685 3.80669C15.9685 1.71084 14.0044 0 11.5622 0H4.40636ZM1.65579 3.80669C1.65579 2.48085 2.89534 1.41918 4.40636 1.41918H7.15592V6.19421H4.40636C2.89534 6.19421 1.65579 5.1317 1.65579 3.80669ZM11.5622 6.19337H8.81265V1.41834H11.5622C13.0742 1.41834 14.3128 2.48085 14.3128 3.80669C14.3128 5.1317 13.0742 6.19337 11.5622 6.19337ZM1.65679 10.0001C1.65679 8.67506 2.89634 7.61255 4.40735 7.61255H7.15692V12.3876H4.40636C2.89434 12.3876 1.65579 11.3251 1.65579 10.0001H1.65679ZM8.81265 10.0001C8.81265 8.67506 10.0522 7.61255 11.5632 7.61255C13.0752 7.61255 14.3138 8.67422 14.3138 10.0001C14.3138 11.3251 13.0752 12.3876 11.5632 12.3876C10.0522 12.3876 8.81365 11.3259 8.81365 10.0001H8.81265ZM1.65679 16.1934C1.65679 14.8684 2.89634 13.8068 4.40735 13.8068H7.15692V16.1934C7.15692 17.5193 5.91937 18.581 4.40735 18.581C2.89634 18.581 1.65679 17.5193 1.65679 16.1934Z" fill="url(#paint0_linear_1_289)"/>
</g>
<defs>
<linearGradient id="paint0_linear_1_289" x1="7.98429" y1="0" x2="7.98429" y2="20.0001" gradientUnits="userSpaceOnUse">
<stop stop-color="#693B93" stop-opacity="0.53"/>
<stop offset="1" stop-color="#693B93"/>
</linearGradient>
</defs>
</svg>
