<svg width="19" height="16" viewBox="0 0 19 16" fill="none" xmlns="http://www.w3.org/2000/svg">
<path id="Vector" d="M16.9643 0H2.03572C0.911833 0 0 0.761367 0 1.6998V14.165C0 15.1034 0.911833 15.8648 2.03572 15.8648H16.9643C18.0882 15.8648 19.0001 15.1034 19.0001 14.165V1.6998C19.0001 0.761367 18.0882 0 16.9643 0ZM10.3398 12.3731C10.3398 13.9171 9.25404 14.6218 7.67212 14.6218C6.24287 14.6218 5.41586 14.0056 4.99176 13.2584L6.44645 12.5254C6.72636 12.9397 6.98082 13.2903 7.59578 13.2903C8.18105 13.2903 8.55427 13.0991 8.55427 12.3519V7.28434H10.3398V12.3731ZM14.5639 14.6218C12.9056 14.6218 11.8326 13.9631 11.311 13.0991L12.7657 12.3979C13.1474 12.9185 13.6478 13.3045 14.5257 13.3045C15.2637 13.3045 15.7387 12.9964 15.7387 12.5679C15.7387 12.0579 15.2552 11.8773 14.4366 11.5763L13.9913 11.417C12.702 10.9601 11.8496 10.3829 11.8496 9.16828C11.8496 8.04925 12.8717 7.19935 14.4621 7.19935C15.5987 7.19935 16.413 7.52868 16.9983 8.39275L15.6072 9.13641C15.3018 8.67959 14.971 8.49898 14.4579 8.49898C13.9362 8.49898 13.6054 8.7752 13.6054 9.13641C13.6054 9.5826 13.9362 9.76321 14.7038 10.043L15.1492 10.2023C16.6675 10.7441 17.5199 11.3001 17.5199 12.5466C17.5199 13.8852 16.2561 14.6218 14.5639 14.6218Z" fill="url(#paint0_linear_1_286)"/>
<defs>
<linearGradient id="paint0_linear_1_286" x1="9.50003" y1="0" x2="9.50003" y2="15.8648" gradientUnits="userSpaceOnUse">
<stop stop-color="#693B93" stop-opacity="0.53"/>
<stop offset="1" stop-color="#693B93"/>
</linearGradient>
</defs>
</svg>
