<svg width="29" height="21" viewBox="0 0 29 21" fill="none" xmlns="http://www.w3.org/2000/svg">
<g id="Group">
<path id="Vector" d="M28.2417 10.5026C28.2417 8.94029 25.8988 7.45958 22.3062 6.54187C23.1358 3.48513 22.7675 1.05232 21.1436 0.273151C20.7501 0.089138 20.3048 -0.003486 19.8539 0.00491278V1.0759C20.1187 1.0759 20.3316 1.12012 20.5105 1.20167C21.293 1.577 21.6331 3.00368 21.3684 4.84008C21.3048 5.29206 21.2013 5.76761 21.0742 6.253C19.8711 6.01093 18.6501 5.83598 17.4192 5.72929C16.6859 4.88458 15.8859 4.08168 15.0246 3.32596C16.9015 1.86981 18.663 1.07197 19.861 1.07197V0C18.2771 0 16.2048 0.942273 14.1091 2.57627C12.0145 0.953081 9.94107 0.0196511 8.35836 0.0196511V1.09064C9.55039 1.09064 11.3178 1.88455 13.1947 3.33087C12.3887 4.03831 11.5826 4.84008 10.8166 5.72929C9.58314 5.83479 8.35995 6.01142 7.15573 6.25791C7.02847 5.79787 6.92832 5.33288 6.85566 4.86464C6.58502 3.02726 6.91921 1.60059 7.69703 1.22132C7.86883 1.13485 8.09359 1.09555 8.35836 1.09555V0.0245639C7.8759 0.0245639 7.43697 0.111029 7.05806 0.292802C5.44005 1.07197 5.07762 3.49889 5.91192 6.54678C2.33111 7.47039 0 8.9452 0 10.5026C0 12.0648 2.34288 13.5455 5.93546 14.4623C5.10586 17.52 5.47418 19.9528 7.09807 20.731C7.47227 20.9137 7.91002 21.0002 8.39248 21.0002C9.97637 21.0002 12.0486 20.0579 14.1444 18.4239C16.239 20.0481 18.3112 20.9806 19.8951 20.9806C20.3494 20.9886 20.7981 20.8957 21.1954 20.7113C22.8134 19.9331 23.1758 17.5062 22.3415 14.4583C25.9106 13.5406 28.2417 12.0599 28.2417 10.5026ZM20.7459 7.29647C20.5223 7.93892 20.2631 8.57237 19.9692 9.19477C19.4881 8.4134 18.9599 7.65291 18.3865 6.91622C19.2043 7.01743 19.9927 7.14221 20.747 7.29647H20.7459ZM18.11 12.4156C17.679 13.0439 17.2161 13.6566 16.7226 14.252C14.9954 14.3791 13.2583 14.3808 11.5308 14.2569C10.54 13.0751 9.6734 11.8239 8.94084 10.5173C9.67228 9.20765 10.5352 7.95204 11.5202 6.76393C13.247 6.63656 14.9837 6.63458 16.7108 6.75803C17.1886 7.32988 17.6558 7.94103 18.1041 8.58559C18.5418 9.21442 18.9396 9.85309 19.302 10.4976C18.9355 11.15 18.5379 11.7899 18.11 12.4156ZM19.9692 11.7907C20.2799 12.4343 20.5458 13.0788 20.7635 13.7037C20.0104 13.858 19.2149 13.9877 18.3924 14.0879C18.9634 13.3445 19.4896 12.5778 19.9692 11.7907ZM14.1326 16.9196C13.5972 16.4578 13.0618 15.944 12.5322 15.381C13.05 15.4006 13.5795 15.4153 14.115 15.4153C14.6562 15.4153 15.1917 15.4055 15.7153 15.381C15.1975 15.944 14.6621 16.4578 14.1326 16.9196ZM9.84928 14.0879C9.05586 13.9919 8.26818 13.8654 7.48875 13.7086C7.70174 13.0886 7.9665 12.449 8.2654 11.8103C8.50192 12.1935 8.75021 12.5787 9.02086 12.9639C9.29151 13.348 9.56686 13.7234 9.84928 14.0879ZM14.1032 4.08547C14.6386 4.54728 15.174 5.06115 15.7035 5.62416C15.1858 5.60451 14.6562 5.58977 14.1208 5.58977C13.5795 5.58977 13.0441 5.5996 12.5205 5.62416C13.0382 5.06115 13.5737 4.54728 14.1032 4.08547ZM9.8434 6.91721C9.27253 7.65897 8.74627 8.42402 8.26657 9.20951C7.9644 8.58309 7.69932 7.94464 7.47227 7.29647C8.22539 7.14712 9.02086 7.01743 9.8434 6.91721ZM4.63399 12.9344C2.59588 12.2093 1.27794 11.2572 1.27794 10.5026C1.27794 9.74795 2.59588 8.79094 4.63399 8.07073C5.12822 7.89288 5.66952 7.73371 6.22846 7.58534C6.55677 8.52663 6.98864 9.50723 7.52287 10.5124C7.01848 11.4578 6.59191 12.4308 6.24612 13.4247C5.69946 13.2834 5.16144 13.1197 4.63399 12.9344ZM7.73116 19.8025C6.94863 19.4291 6.60855 18.0005 6.87332 16.165C6.93686 15.7131 7.04041 15.2365 7.1675 14.7511C8.29481 14.982 9.52685 15.1599 10.8224 15.2758C11.5558 16.1205 12.3558 16.9234 13.2171 17.6792C11.3402 19.1353 9.57863 19.9331 8.38072 19.9331C8.15471 19.9352 7.93159 19.8907 7.73116 19.8034V19.8025ZM21.386 16.1405C21.6567 17.9769 21.3225 19.4045 20.5446 19.7838C20.3728 19.8703 20.1481 19.9086 19.8833 19.9086C18.6913 19.9086 16.9238 19.1157 15.0469 17.6683C15.9047 16.9158 16.6993 16.1147 17.4251 15.2709C18.6585 15.1654 19.8817 14.9888 21.0859 14.7423C21.2189 15.2277 21.3213 15.6934 21.386 16.1405ZM23.6018 12.9344C23.1076 13.1122 22.5663 13.2714 22.0073 13.4198C21.6554 12.4208 21.223 11.4429 20.7129 10.4927C21.2424 9.49347 21.6672 8.51779 21.9897 7.58043C22.5381 7.72223 23.078 7.88585 23.6077 8.07073C25.6458 8.79586 26.9637 9.74795 26.9637 10.5026C26.9578 11.2572 25.6399 12.2142 23.6018 12.9344Z" fill="url(#paint0_linear_1_283)"/>
<path id="Vector_2" d="M14.1152 12.699C14.813 12.699 15.4823 12.4675 15.9757 12.0555C16.4692 11.6435 16.7464 11.0846 16.7464 10.502C16.7464 9.91928 16.4692 9.36047 15.9757 8.94845C15.4823 8.53643 14.813 8.30497 14.1152 8.30497C13.4174 8.30497 12.7481 8.53643 12.2547 8.94845C11.7612 9.36047 11.484 9.91928 11.484 10.502C11.484 11.0846 11.7612 11.6435 12.2547 12.0555C12.7481 12.4675 13.4174 12.699 14.1152 12.699Z" fill="url(#paint1_linear_1_283)"/>
</g>
<defs>
<linearGradient id="paint0_linear_1_283" x1="14.1208" y1="0" x2="14.1208" y2="21.0002" gradientUnits="userSpaceOnUse">
<stop stop-color="#693B93" stop-opacity="0.53"/>
<stop offset="1" stop-color="#693B93"/>
</linearGradient>
<linearGradient id="paint1_linear_1_283" x1="14.1152" y1="8.30497" x2="14.1152" y2="12.699" gradientUnits="userSpaceOnUse">
<stop stop-color="#693B93" stop-opacity="0.53"/>
<stop offset="1" stop-color="#693B93"/>
</linearGradient>
</defs>
</svg>
