<svg width="23" height="23" viewBox="0 0 23 23" fill="none" xmlns="http://www.w3.org/2000/svg">
<path id="Vector" d="M11.4949 22.8056C11.15 22.8056 10.7999 22.7241 10.4962 22.5703L7.32007 20.9185C6.84648 20.6832 7.07813 20.6017 7.23256 20.5565C7.86573 20.3619 7.99443 20.3212 8.66878 19.9818C8.74085 19.9456 8.83351 19.9591 8.90557 19.9999L11.3456 21.2715C11.4331 21.3167 11.5567 21.3167 11.639 21.2715L21.1469 16.4475C21.2344 16.4022 21.291 16.3117 21.291 16.2212V6.5731C21.291 6.47806 21.2344 6.39208 21.1417 6.3423L11.639 1.52279C11.5515 1.47753 11.4331 1.47753 11.3456 1.52279L1.84804 6.34683C1.75538 6.39208 1.69875 6.48259 1.69875 6.57762V16.2212C1.69875 16.3117 1.75538 16.4022 1.84804 16.4429L4.45279 17.7643C5.86841 18.3843 6.73323 17.6557 6.73323 16.9181V7.39671C6.73323 7.26095 6.85678 7.15687 7.01121 7.15687H8.21578C8.36506 7.15687 8.49376 7.26095 8.49376 7.39671V16.9226C8.49376 18.5789 7.46421 19.5292 5.67795 19.5292C5.12714 19.5292 4.69473 19.5292 3.49016 19.0043L0.99866 17.7417C0.380932 17.4295 0 16.8457 0 16.2167V6.5731C0 5.9486 0.380932 5.3603 0.99866 5.04805L10.4962 0.224006C11.0985 -0.0746686 11.8964 -0.0746686 12.4935 0.224006L22.0014 5.05257C22.6191 5.36482 23.0001 5.9486 23.0001 6.57762V16.2212C23.0001 16.8457 22.6191 17.4295 22.0014 17.7462L12.4935 22.5703C12.1898 22.7241 11.8449 22.8056 11.4949 22.8056ZM19.1701 13.2978C19.1701 11.4922 17.7803 11.0125 14.8615 10.6731C11.9067 10.3292 11.6081 10.1527 11.6081 9.54626C11.6081 9.04395 11.8604 8.37419 14.0482 8.37419C15.9991 8.37419 16.7198 8.74527 17.0184 9.90377C17.0441 10.0124 17.1574 10.0938 17.2861 10.0938H18.5215C18.5987 10.0938 18.6708 10.0667 18.7223 10.0169C18.7738 9.96712 18.7995 9.89924 18.7944 9.83136C18.6039 7.83567 17.0956 6.90797 14.0482 6.90797C11.3353 6.90797 9.71891 7.91261 9.71891 9.60057C9.71891 11.4288 11.3302 11.9357 13.9298 12.1619C17.0441 12.4289 17.2861 12.8317 17.2861 13.3702C17.2861 14.3024 16.4316 14.7007 14.4291 14.7007C11.9118 14.7007 11.361 14.144 11.1757 13.0444C11.1551 12.9267 11.0419 12.8407 10.9029 12.8407H9.67259C9.51815 12.8407 9.39976 12.9493 9.39976 13.0806C9.39976 14.488 10.2697 16.1669 14.4342 16.1669C17.4405 16.1624 19.1701 15.117 19.1701 13.2978Z" fill="url(#paint0_linear_1_287)"/>
<defs>
<linearGradient id="paint0_linear_1_287" x1="11.5" y1="0" x2="11.5" y2="22.8056" gradientUnits="userSpaceOnUse">
<stop stop-color="#693B93" stop-opacity="0.53"/>
<stop offset="1" stop-color="#693B93"/>
</linearGradient>
</defs>
</svg>
