<svg width="19" height="16" viewBox="0 0 19 16" fill="none" xmlns="http://www.w3.org/2000/svg">
<g id="Group 1900">
<path id="Vector" d="M15.8457 0H3.1543C1.41223 0 0 1.17919 0 2.6338V12.8343C0 14.2889 1.41223 15.4681 3.1543 15.4681H15.8457C17.5878 15.4681 19 14.2889 19 12.8343V2.6338C19 1.17919 17.5878 0 15.8457 0Z" fill="url(#paint0_linear_1_291)"/>
<path id="Vector_2" d="M9.98795 4.06878L7.61717 7.33611L10.1536 10.8056C10.1699 10.8299 10.1745 10.8584 10.1664 10.8854C10.1624 10.8969 10.154 10.8998 10.141 10.9002L10.1266 10.9L10.1091 10.8997C10.0996 10.8997 10.089 10.9 10.0772 10.9017H8.24841L8.21248 10.9012C8.11392 10.899 8.04289 10.8872 7.99962 10.8269C7.83041 10.5516 7.66045 10.2767 7.48974 10.0021C7.33704 9.75715 7.18017 9.51405 7.01919 9.27285L6.94809 9.16663C6.75555 8.8809 6.56648 8.59354 6.38091 8.30461H6.36814C6.19677 8.59052 6.02044 8.87434 5.83919 9.15598C5.65639 9.43981 5.47581 9.7219 5.29746 10.0021C5.11901 10.2825 4.93632 10.561 4.74943 10.8375C4.71937 10.8939 4.66942 10.9057 4.59988 10.9076L4.57093 10.908H2.82479L2.81722 10.9082L2.79228 10.91C2.7784 10.9107 2.77009 10.9082 2.76741 10.8907C2.76262 10.8648 2.76944 10.8383 2.78656 10.8163L5.24647 7.44252L2.85024 4.05825C2.82479 4.02999 2.82056 4.00693 2.83748 3.98908C2.84688 3.97999 2.85869 3.97285 2.87197 3.96823C2.88525 3.9636 2.89964 3.96162 2.914 3.96244H4.71113C4.75032 3.96065 4.78951 3.9661 4.82588 3.97843C4.85631 3.99287 4.8825 4.01288 4.90232 4.03699C5.05529 4.32082 5.22525 4.60465 5.41221 4.88836C5.59771 5.17027 5.78678 5.45055 5.97939 5.72913C6.16904 6.00339 6.3455 6.28387 6.50834 6.5699H6.52111C6.688 6.28394 6.86008 6.00012 7.0373 5.71853C7.21135 5.44183 7.38984 5.16326 7.57257 4.88303C7.75298 4.60639 7.92931 4.32791 8.10153 4.04765C8.11132 4.02137 8.12884 3.99758 8.15251 3.97843C8.184 3.96512 8.21937 3.95957 8.25449 3.96244H9.92419C9.93954 3.95924 9.95572 3.9603 9.9703 3.96544C9.98487 3.97058 9.99704 3.97954 10.005 3.99096C10.0129 4.00238 10.0162 4.01564 10.0144 4.02876C10.0125 4.04188 10.0056 4.05414 9.9947 4.0637L9.98802 4.0689L9.98795 4.06878ZM13.7338 11.0389L13.6459 11.0397C13.0592 11.0472 12.4779 10.9454 11.9443 10.7418C11.4472 10.5497 11.0316 10.236 10.7526 9.84244C10.4712 9.45226 10.3268 8.96603 10.3195 8.38393L10.3192 8.33652C10.3144 7.84807 10.4639 7.36719 10.7526 6.94235C11.0416 6.52185 11.4628 6.1754 11.9707 5.94051L12.0144 5.92068C12.5666 5.66523 13.2337 5.53751 14.0155 5.53751L14.0497 5.53782L14.0887 5.53887L14.1325 5.54048L14.1812 5.54284L14.263 5.54767L14.3556 5.55387L14.4233 5.55883V3.4622C14.4233 3.41262 14.4489 3.38771 14.4998 3.38771H16.1058C16.1162 3.38647 16.1268 3.38726 16.1367 3.39003C16.1467 3.3928 16.1557 3.39746 16.1632 3.40366C16.1706 3.40985 16.1762 3.4174 16.1795 3.42572C16.1828 3.43403 16.1837 3.44287 16.1823 3.45154V9.74136C16.1823 9.84696 16.1872 9.96074 16.197 10.0825L16.2207 10.3585L16.2333 10.5182C16.2349 10.5404 16.2284 10.5624 16.2148 10.5813C16.2011 10.6003 16.1809 10.6155 16.1568 10.6247C15.7425 10.769 15.3109 10.876 14.8695 10.9439C14.4947 11.0017 14.1148 11.0335 13.7338 11.0389ZM14.4233 9.72004V6.81462C14.3545 6.79905 14.2841 6.78837 14.2131 6.78271C14.1262 6.77541 14.039 6.77185 13.9518 6.77205C13.6425 6.76949 13.3368 6.82784 13.0596 6.94235C12.7895 7.05443 12.559 7.22312 12.3904 7.43192C12.2222 7.63742 12.1351 7.90576 12.1294 8.23694L12.1291 8.27269C12.1229 8.50467 12.1683 8.7356 12.2629 8.95376C12.34 9.12958 12.4618 9.28936 12.6199 9.42208C12.7712 9.54417 12.9545 9.63524 13.1552 9.68813C13.3672 9.74545 13.5887 9.77421 13.8116 9.77334C13.9305 9.77334 14.0409 9.76974 14.1429 9.76262C14.2243 9.75751 14.305 9.74631 14.384 9.72915L14.4233 9.72004Z" fill="black"/>
</g>
<defs>
<linearGradient id="paint0_linear_1_291" x1="9.50002" y1="0" x2="9.50002" y2="15.4681" gradientUnits="userSpaceOnUse">
<stop stop-color="#693B93" stop-opacity="0.53"/>
<stop offset="1" stop-color="#693B93"/>
</linearGradient>
</defs>
</svg>
