<svg width="20" height="18" viewBox="0 0 20 18" fill="none" xmlns="http://www.w3.org/2000/svg">
<path id="Vector" fill-rule="evenodd" clip-rule="evenodd" d="M10 0C4.47667 0 0 4.00569 0 8.94627C0 13.8869 4.47667 17.8925 10 17.8925C15.5225 17.8925 20 13.8869 20 8.94627C20 4.00569 15.5225 0 10 0ZM10.1167 14.1784C6.89333 14.1784 4.28333 11.8374 4.28333 8.94627C4.28333 6.05514 6.89333 3.71419 10.1167 3.71419C11.6917 3.71419 13.0083 4.23382 14.0183 5.07776L12.3733 6.5524V6.54942C11.7608 6.02606 10.9842 5.75767 10.1167 5.75767C8.19167 5.75767 6.6275 7.21592 6.6275 8.94329C6.6275 10.6692 8.19167 12.1319 10.1167 12.1319C11.8633 12.1319 13.0517 11.2358 13.2967 10.0057H10.1167V7.96517H15.6042C15.6775 8.31556 15.7167 8.68087 15.7167 9.06407C15.7167 12.0536 13.4858 14.1784 10.1167 14.1784Z" fill="url(#paint0_linear_1_299)"/>
<defs>
<linearGradient id="paint0_linear_1_299" x1="10" y1="0" x2="10" y2="17.8925" gradientUnits="userSpaceOnUse">
<stop stop-color="#693B93" stop-opacity="0.53"/>
<stop offset="1" stop-color="#693B93"/>
</linearGradient>
</defs>
</svg>
