<svg width="29" height="12" viewBox="0 0 29 12" fill="none" xmlns="http://www.w3.org/2000/svg">
<g id="Group 1901">
<path id="Vector" d="M20.8795 6.40309C22.4053 5.67136 23.927 4.93367 25.458 4.2096C26.9112 3.52204 28.6208 4.15606 28.9503 5.49391C29.141 6.26783 28.7272 7.10389 27.8904 7.5111C25.1469 8.84602 22.3995 10.1756 19.6384 11.4849C18.7838 11.8901 17.9035 11.8156 17.1247 11.319C16.3336 10.8149 16.0842 10.1195 16.2698 9.31006C16.4816 8.69392 16.9665 8.28199 17.6277 7.97382C18.7208 7.46437 19.7964 6.92806 20.8795 6.40309Z" fill="url(#paint0_linear_1_294)"/>
<path id="Vector_2" d="M21.9996 5.8721C20.4777 5.13469 18.9519 4.40305 17.4353 3.65817C15.9956 2.95103 15.7985 1.39771 17.0213 0.49042C17.7286 -0.0342594 18.8026 -0.153157 19.6434 0.24837C22.3997 1.56475 25.1525 2.88671 27.8909 4.22863C28.7385 4.64397 29.1012 5.31791 28.9758 6.12938C28.8484 6.95343 28.252 7.48142 27.3197 7.75204C26.5746 7.90697 25.905 7.76225 25.2548 7.43819C24.1797 6.90235 23.0857 6.39271 21.9996 5.8721Z" fill="url(#paint1_linear_1_294)"/>
<path id="Vector_3" d="M8.12812 5.35018C7.15152 5.81348 6.17436 6.27592 5.19867 6.74063C4.62807 7.01247 4.0636 7.29359 3.49005 7.56089C2.33425 8.09957 0.961055 7.78384 0.305724 6.83503C-0.319701 5.92963 0.0397401 4.75579 1.15284 4.21324C3.87442 2.88683 6.60302 1.57007 9.34147 0.26797C10.1813 -0.131286 11.0527 -0.0810595 11.8293 0.396326C12.6491 0.900196 12.9174 1.60923 12.7333 2.44037C12.6191 2.64156 12.551 2.87737 12.3799 3.0358C12.1019 3.29356 11.7858 3.54034 11.434 3.72157C10.3451 4.28219 9.23182 4.8098 8.12812 5.35018Z" fill="url(#paint2_linear_1_294)"/>
<path id="Vector_4" d="M7.00828 5.86942C7.97718 6.34387 8.94539 6.81936 9.91519 7.29249C10.4824 7.56926 11.0562 7.83685 11.6202 8.11787C12.7568 8.68445 13.1161 9.83521 12.4596 10.7835C11.8331 11.6885 10.4361 12.0156 9.31672 11.4818C6.58019 10.177 3.85023 8.86237 1.13058 7.53313C0.296496 7.12545 -0.0870736 6.47024 0.0197504 5.66993C0.132465 4.82517 0.733647 4.27665 1.68781 3.99412C1.95346 3.97624 2.23213 3.90757 2.48203 3.95202C2.88837 4.02429 3.30241 4.12938 3.66627 4.2932C4.79217 4.8002 5.89598 5.34143 7.00828 5.86942Z" fill="url(#paint3_linear_1_294)"/>
</g>
<defs>
<linearGradient id="paint0_linear_1_294" x1="22.6038" y1="3.92931" x2="22.6038" y2="11.7461" gradientUnits="userSpaceOnUse">
<stop stop-color="#693B93" stop-opacity="0.53"/>
<stop offset="1" stop-color="#693B93"/>
</linearGradient>
<linearGradient id="paint1_linear_1_294" x1="22.6084" y1="0.0089847" x2="22.6084" y2="7.81438" gradientUnits="userSpaceOnUse">
<stop stop-color="#693B93" stop-opacity="0.53"/>
<stop offset="1" stop-color="#693B93"/>
</linearGradient>
<linearGradient id="paint2_linear_1_294" x1="6.39435" y1="0" x2="6.39435" y2="7.823" gradientUnits="userSpaceOnUse">
<stop stop-color="#693B93" stop-opacity="0.53"/>
<stop offset="1" stop-color="#693B93"/>
</linearGradient>
<linearGradient id="paint3_linear_1_294" x1="6.3943" y1="3.9373" x2="6.3943" y2="11.7392" gradientUnits="userSpaceOnUse">
<stop stop-color="#693B93" stop-opacity="0.53"/>
<stop offset="1" stop-color="#693B93"/>
</linearGradient>
</defs>
</svg>
