<svg width="17" height="15" viewBox="0 0 17 15" fill="none" xmlns="http://www.w3.org/2000/svg">
<g id="Group 1902">
<path id="Vector" d="M0.70975 0.638958H16.2927V14.3084H0.70975V0.638958ZM0 14.9474H17V0H0V14.9474ZM11.135 5.32739C11.135 5.27647 11.1563 5.25074 11.22 5.25074H12.3323C12.3888 5.25074 12.4173 5.2699 12.4173 5.32739V10.3673C12.4173 10.4183 12.4033 10.444 12.3323 10.444H11.2352C11.1642 10.444 11.1429 10.4122 11.1429 10.3608V5.32739H11.1356H11.135ZM11.0573 3.87755C11.0573 3.70475 11.1334 3.53903 11.2689 3.41684C11.4044 3.29465 11.5882 3.226 11.7798 3.226C11.9714 3.226 12.1552 3.29465 12.2907 3.41684C12.4262 3.53903 12.5023 3.70475 12.5023 3.87755C12.5093 3.96583 12.4949 4.05442 12.4602 4.13719C12.4255 4.21996 12.3712 4.29493 12.3011 4.35691C12.2311 4.41889 12.1469 4.46639 12.0545 4.49612C11.9621 4.52585 11.8636 4.53711 11.7658 4.5291C11.6701 4.53452 11.5741 4.52127 11.4846 4.49025C11.395 4.45923 11.3139 4.41117 11.2468 4.34934C11.1797 4.28751 11.1281 4.21337 11.0956 4.13195C11.0631 4.05054 11.0505 3.96377 11.0585 3.87755H11.0573ZM7.86979 7.42933C7.67126 6.71755 7.20193 5.17463 7.02708 4.42726H7.01311C6.86436 5.17463 6.48915 6.43941 6.19165 7.42933H7.86979ZM5.90083 8.46415L5.34104 10.3805C5.32708 10.4314 5.30583 10.4445 5.23479 10.4445H4.19475C4.12372 10.4445 4.10975 10.4254 4.12372 10.3487L6.13518 3.99746C6.18414 3.8243 6.20802 3.64615 6.20622 3.46746C6.20622 3.42256 6.22747 3.4034 6.26268 3.4034H7.75018C7.79997 3.4034 7.82122 3.41599 7.83518 3.46746L10.0877 10.3597C10.1017 10.4106 10.0877 10.4429 10.0312 10.4429H8.85518C8.79872 10.4429 8.7629 10.4303 8.74893 10.3881L8.1679 8.46524H5.90143L5.90083 8.46415Z" fill="url(#paint0_linear_1_303)"/>
</g>
<defs>
<linearGradient id="paint0_linear_1_303" x1="8.50001" y1="0" x2="8.50001" y2="14.9474" gradientUnits="userSpaceOnUse">
<stop stop-color="#693B93" stop-opacity="0.53"/>
<stop offset="1" stop-color="#693B93"/>
</linearGradient>
</defs>
</svg>
