<svg width="18" height="15" viewBox="0 0 18 15" fill="none" xmlns="http://www.w3.org/2000/svg">
<g id="Group 1903">
<path id="Vector" fill-rule="evenodd" clip-rule="evenodd" d="M2.17959e-07 1.25316C2.17959e-07 0.920804 0.155138 0.602058 0.431286 0.367044C0.707434 0.132031 1.08197 1.67064e-06 1.4725 1.67064e-06H16.151C16.3446 -0.000267338 16.5363 0.0319531 16.7152 0.0948184C16.8941 0.157684 17.0566 0.249959 17.1935 0.366361C17.3305 0.482764 17.4391 0.621008 17.5131 0.773178C17.5872 0.925348 17.6253 1.08846 17.6252 1.25316V13.7452C17.6254 13.91 17.5874 14.0731 17.5134 14.2254C17.4395 14.3776 17.331 14.516 17.1942 14.6325C17.0573 14.749 16.8948 14.8414 16.716 14.9044C16.5371 14.9675 16.3454 14.9999 16.1518 14.9998H1.4725C1.27906 14.9998 1.08752 14.9673 0.908815 14.9043C0.73011 14.8413 0.567747 14.7489 0.431003 14.6325C0.294258 14.516 0.185811 14.3778 0.111858 14.2257C0.0379047 14.0736 -0.000105026 13.9105 2.17959e-07 13.7459V1.25316ZM6.97636 5.719H9.36296V6.73898C9.70745 6.15263 10.5887 5.62491 11.913 5.62491C14.4518 5.62491 15.0535 6.79285 15.0535 8.93577V12.9052H12.4842V9.42394C12.4842 8.20351 12.1397 7.51488 11.2649 7.51488C10.0511 7.51488 9.54642 8.25737 9.54642 9.42394V12.9052H6.97636V5.719ZM2.57007 12.8118H5.14014V5.62491H2.57007V12.8112V12.8118ZM5.50786 3.28086C5.51271 3.46813 5.47355 3.65434 5.39269 3.82856C5.31183 4.00278 5.19089 4.1615 5.03697 4.29541C4.88306 4.42931 4.69927 4.53571 4.49638 4.60834C4.2935 4.68098 4.07561 4.71839 3.8555 4.71839C3.6354 4.71839 3.41751 4.68098 3.21462 4.60834C3.01174 4.53571 2.82795 4.42931 2.67403 4.29541C2.52012 4.1615 2.39918 4.00278 2.31832 3.82856C2.23746 3.65434 2.1983 3.46813 2.20314 3.28086C2.21266 2.91326 2.39092 2.56345 2.69976 2.30634C3.0086 2.04923 3.42347 1.90526 3.8555 1.90526C4.28754 1.90526 4.7024 2.04923 5.01124 2.30634C5.32008 2.56345 5.49835 2.91326 5.50786 3.28086Z" fill="url(#paint0_linear_1_305)"/>
</g>
<defs>
<linearGradient id="paint0_linear_1_305" x1="8.81258" y1="0" x2="8.81258" y2="14.9998" gradientUnits="userSpaceOnUse">
<stop stop-color="#693B93" stop-opacity="0.53"/>
<stop offset="1" stop-color="#693B93"/>
</linearGradient>
</defs>
</svg>
